<svg width="191" height="114" viewBox="0 0 191 114" fill="none" xmlns="http://www.w3.org/2000/svg">
<path d="M184.1 105.37H190.08L187.09 100.71L184.1 105.37Z" fill="white"/>
<path d="M0.139893 105.37H6.1199L3.12989 100.71L0.139893 105.37Z" fill="white"/>
<path d="M28.96 57.3601L12.78 82.5901H37.39L53.1 57.3601H28.96Z" fill="#CF6428"/>
<path d="M105.65 59.2099L118.75 38.7899L94.4501 0.909912L42.0601 82.5899H68.2501L94.4501 41.7499L105.65 59.2099Z" fill="#CF6428"/>
<path d="M134.7 41.7499L160.89 82.5899H187.09L134.7 0.909912L82.3101 82.5899H108.5L134.7 41.7499Z" fill="#CF6428"/>
<path d="M0.139893 1.02002V82.59H8.53989L25.0599 56.82V20.67V14.8V1.02002H0.139893Z" fill="#CF6428"/>
<path d="M44.77 5.26001C42.0899 5.25923 39.4891 6.1693 37.3942 7.84094C35.2993 9.51259 33.8346 11.8466 33.2406 14.46C32.6465 17.0735 32.9582 19.8112 34.1247 22.2242C35.2911 24.6372 37.2429 26.5821 39.66 27.74L52.33 8.00002C50.2085 6.22973 47.5331 5.26005 44.77 5.26001Z" fill="white"/>
<path d="M61.03 20.4299L61.01 6.56995L61 1.67993L60.34 2.32994L59 4.40994L46.33 24.1699L37.79 37.4899L37.28 82.1999L37.94 81.5499L61.06 46.0299L61.03 20.4299Z" fill="white"/>
<path d="M188.98 87.5701H0.139893V88.3401H188.98V87.5701Z" fill="white"/>
<path d="M31.7238 106.152V108.73H20.976V94.849H31.466V97.4269H24.1686V100.441H30.6133V102.94H24.1686V106.152H31.7238ZM47.0107 94.849V108.73H44.3734L37.4527 100.302V108.73H34.2799V94.849H36.9371L43.8379 103.277V94.849H47.0107ZM59.6745 101.571H62.6094V107.203C61.8558 107.772 60.9833 108.208 59.9918 108.512C59.0003 108.816 58.0022 108.968 56.9975 108.968C55.5565 108.968 54.2609 108.664 53.1108 108.056C51.9607 107.434 51.0551 106.582 50.3941 105.498C49.7463 104.4 49.4224 103.164 49.4224 101.789C49.4224 100.415 49.7463 99.1851 50.3941 98.1011C51.0551 97.0038 51.9673 96.1512 53.1306 95.543C54.294 94.9217 55.6028 94.611 57.057 94.611C58.2732 94.611 59.3771 94.8159 60.3686 95.2257C61.3601 95.6356 62.1929 96.2305 62.8672 97.0105L60.8048 98.9141C59.8133 97.8698 58.6169 97.3476 57.2156 97.3476C56.3299 97.3476 55.5433 97.5326 54.8558 97.9028C54.1684 98.273 53.633 98.7952 53.2496 99.4694C52.8662 100.144 52.6745 100.917 52.6745 101.789C52.6745 102.649 52.8662 103.416 53.2496 104.09C53.633 104.764 54.1618 105.293 54.836 105.676C55.5234 106.046 56.3034 106.231 57.1759 106.231C58.1013 106.231 58.9342 106.033 59.6745 105.637V101.571ZM76.3413 106.152V108.73H65.5935V94.849H76.0835V97.4269H68.7861V100.441H75.2308V102.94H68.7861V106.152H76.3413ZM91.6282 94.849V108.73H88.9909L82.0702 100.302V108.73H78.8974V94.849H81.5546L88.4554 103.277V94.849H91.6282ZM107.643 94.849V108.73H104.431V103.039H98.1249V108.73H94.9124V94.849H98.1249V100.322H104.431V94.849H107.643ZM120.069 105.755H113.624L112.395 108.73H109.103L115.29 94.849H118.463L124.67 108.73H121.299L120.069 105.755ZM119.058 103.316L116.857 98.002L114.656 103.316H119.058ZM134.954 108.73L132.277 104.863H132.118H129.322V108.73H126.11V94.849H132.118C133.348 94.849 134.412 95.0539 135.311 95.4637C136.223 95.8735 136.924 96.4552 137.413 97.2087C137.902 97.9623 138.147 98.8546 138.147 99.8858C138.147 100.917 137.895 101.809 137.393 102.563C136.904 103.303 136.203 103.872 135.291 104.268L138.404 108.73H134.954ZM134.895 99.8858C134.895 99.1058 134.643 98.5109 134.141 98.1011C133.639 97.6781 132.905 97.4665 131.94 97.4665H129.322V102.305H131.94C132.905 102.305 133.639 102.094 134.141 101.671C134.643 101.247 134.895 100.653 134.895 99.8858ZM140.692 94.849H143.904V108.73H140.692V94.849ZM156.34 105.755H149.895L148.666 108.73H145.374L151.561 94.849H154.734L160.941 108.73H157.57L156.34 105.755ZM155.329 103.316L153.128 98.002L150.927 103.316H155.329Z" fill="white"/>
<path d="M121.73 82.5901H147.72L134.72 62.3301L121.73 82.5901Z" fill="white"/>
</svg>
